<svg width="1200" height="675" viewBox="0 0 1200 675" fill="none" xmlns="http://www.w3.org/2000/svg">
  <rect width="1200" height="675" rx="42" fill="#F4FBF1"/>
  <rect x="64" y="64" width="1072" height="547" rx="34" fill="white" stroke="#2D7D46" stroke-opacity=".22" stroke-width="2"/>
  <circle cx="236" cy="216" r="98" fill="#2D7D46" fill-opacity=".12"/>
  <circle cx="236" cy="216" r="62" stroke="#132018" stroke-width="14"/>
  <path d="M278 258L344 324" stroke="#132018" stroke-width="16" stroke-linecap="round"/>
  <path d="M156 336C218 306 284 302 356 326" stroke="#F0B35E" stroke-width="13" stroke-linecap="round"/>
  <path d="M170 186C214 128 294 121 350 170" stroke="#2D7D46" stroke-width="14" stroke-linecap="round"/>
  <path d="M337 145L352 172L319 176" stroke="#F0B35E" stroke-width="12" stroke-linecap="round" stroke-linejoin="round"/>
  <text x="430" y="162" fill="#2D7D46" font-family="'Noto Sans SC', 'Microsoft YaHei', sans-serif" font-size="30" font-weight="700" letter-spacing="3">行业应用 · GEO 专题图解</text>
  <text x="430" y="246" fill="#132018" font-family="'Noto Sans SC', 'Microsoft YaHei', sans-serif" font-size="42" font-weight="800">B2B品牌做GEO应该先改哪些页面</text>
  <rect x="430" y="432" width="156" height="58" rx="29" fill="#132018"/>
  <text x="508" y="469" text-anchor="middle" fill="white" font-family="'Noto Sans SC', 'Microsoft YaHei', sans-serif" font-size="24" font-weight="700">问题地图</text>
  <rect x="616" y="432" width="156" height="58" rx="29" fill="#2D7D46"/>
  <text x="694" y="469" text-anchor="middle" fill="white" font-family="'Noto Sans SC', 'Microsoft YaHei', sans-serif" font-size="24" font-weight="700">内容工程</text>
  <rect x="802" y="432" width="156" height="58" rx="29" fill="#F0B35E"/>
  <text x="880" y="469" text-anchor="middle" fill="#132018" font-family="'Noto Sans SC', 'Microsoft YaHei', sans-serif" font-size="24" font-weight="700">证据系统</text>
  <text x="430" y="548" fill="#132018" fill-opacity=".68" font-family="'Noto Sans SC', 'Microsoft YaHei', sans-serif" font-size="24">天行GEO · 让结构化内容更容易被搜索引擎与 AI 理解、引用和复核</text>
</svg>